<svg width="32" height="32" viewBox="0 0 32 32" fill="none" xmlns="http://www.w3.org/2000/svg">
<path d="M5.33337 25.3334V22.6667H8.00004V13.3334C8.00004 11.489 8.5556 9.85564 9.66671 8.43341C10.7778 6.98897 12.2223 6.04452 14 5.60008V4.66675C14 4.11119 14.1889 3.64452 14.5667 3.26675C14.9667 2.86675 15.4445 2.66675 16 2.66675C16.5556 2.66675 17.0223 2.86675 17.4 3.26675C17.8 3.64452 18 4.11119 18 4.66675V5.60008C19.7778 6.04452 21.2223 6.98897 22.3334 8.43341C23.4445 9.85564 24 11.489 24 13.3334V22.6667H26.6667V25.3334H5.33337ZM16 29.3334C15.2667 29.3334 14.6334 29.0779 14.1 28.5667C13.5889 28.0334 13.3334 27.4001 13.3334 26.6667H18.6667C18.6667 27.4001 18.4 28.0334 17.8667 28.5667C17.3556 29.0779 16.7334 29.3334 16 29.3334ZM10.6667 22.6667H21.3334V13.3334C21.3334 11.8667 20.8112 10.6112 19.7667 9.56675C18.7223 8.5223 17.4667 8.00008 16 8.00008C14.5334 8.00008 13.2778 8.5223 12.2334 9.56675C11.1889 10.6112 10.6667 11.8667 10.6667 13.3334V22.6667Z" fill="white"/>
</svg>
