<svg width="28" height="28" viewBox="0 0 28 28" fill="none" xmlns="http://www.w3.org/2000/svg">
<path d="M5.79996 20.8001C6.93329 19.9334 8.19996 19.2501 9.59996 18.7501C11 18.2501 12.4666 18.0001 14 18.0001C15.5333 18.0001 17 18.2501 18.4 18.7501C19.8 19.2501 21.0666 19.9334 22.2 20.8001C22.9777 19.889 23.5833 18.8556 24.0166 17.7001C24.45 16.5445 24.6666 15.3112 24.6666 14.0001C24.6666 11.0445 23.6277 8.52786 21.55 6.45008C19.4722 4.3723 16.9555 3.33341 14 3.33341C11.0444 3.33341 8.52774 4.3723 6.44996 6.45008C4.37218 8.52786 3.33329 11.0445 3.33329 14.0001C3.33329 15.3112 3.54996 16.5445 3.98329 17.7001C4.41663 18.8556 5.02218 19.889 5.79996 20.8001ZM14 15.3334C12.6888 15.3334 11.5833 14.8834 10.6833 13.9834C9.78329 13.0834 9.33329 11.9779 9.33329 10.6667C9.33329 9.35564 9.78329 8.25008 10.6833 7.35008C11.5833 6.45008 12.6888 6.00008 14 6.00008C15.3111 6.00008 16.4166 6.45008 17.3166 7.35008C18.2166 8.25008 18.6666 9.35564 18.6666 10.6667C18.6666 11.9779 18.2166 13.0834 17.3166 13.9834C16.4166 14.8834 15.3111 15.3334 14 15.3334ZM14 27.3334C12.1555 27.3334 10.4222 26.9834 8.79996 26.2834C7.17774 25.5834 5.76663 24.6334 4.56663 23.4334C3.36663 22.2334 2.41663 20.8223 1.71663 19.2001C1.01663 17.5779 0.666626 15.8445 0.666626 14.0001C0.666626 12.1556 1.01663 10.4223 1.71663 8.80008C2.41663 7.17786 3.36663 5.76675 4.56663 4.56675C5.76663 3.36675 7.17774 2.41675 8.79996 1.71675C10.4222 1.01675 12.1555 0.666748 14 0.666748C15.8444 0.666748 17.5777 1.01675 19.2 1.71675C20.8222 2.41675 22.2333 3.36675 23.4333 4.56675C24.6333 5.76675 25.5833 7.17786 26.2833 8.80008C26.9833 10.4223 27.3333 12.1556 27.3333 14.0001C27.3333 15.8445 26.9833 17.5779 26.2833 19.2001C25.5833 20.8223 24.6333 22.2334 23.4333 23.4334C22.2333 24.6334 20.8222 25.5834 19.2 26.2834C17.5777 26.9834 15.8444 27.3334 14 27.3334Z" fill="white"/>
</svg>
